<?xml version="1.0" standalone="no"?>
<!DOCTYPE svg PUBLIC "-//W3C//DTD SVG 20010904//EN"
 "http://www.w3.org/TR/2001/REC-SVG-20010904/DTD/svg10.dtd">
<svg version="1.0" xmlns="http://www.w3.org/2000/svg"
 width="450.000000pt" height="500.000000pt" viewBox="0 0 450.000000 500.000000"
 preserveAspectRatio="xMidYMid meet">
<metadata>
Created by potrace 1.16, written by Peter Selinger 2001-2019
</metadata>
<g transform="translate(0.000000,500.000000) scale(0.100000,-0.100000)"
fill="#fff" stroke="none">
<path d="M2260 4666 c-14 -14 -31 -26 -39 -28 -8 -2 -23 -11 -34 -21 -12 -13
-27 -17 -45 -13 -15 3 -21 3 -15 0 15 -7 -8 -34 -31 -38 -7 -1 -21 -9 -30 -19
-20 -19 -51 -24 -40 -5 4 7 3 8 -4 4 -6 -4 -9 -13 -6 -20 3 -9 -4 -17 -18 -21
-13 -4 -25 -11 -28 -14 -3 -4 -17 -14 -31 -23 -20 -13 -29 -14 -38 -5 -9 9
-11 9 -6 -3 3 -10 -6 -21 -27 -33 -18 -10 -36 -17 -41 -17 -4 0 -17 -9 -29
-20 -12 -11 -28 -18 -35 -16 -7 3 -15 0 -19 -6 -5 -7 -2 -8 6 -3 9 6 11 4 6
-4 -5 -7 -15 -10 -23 -7 -8 3 -12 2 -9 -2 3 -5 -9 -16 -25 -26 -22 -13 -33
-15 -43 -7 -9 8 -13 7 -13 -4 0 -8 5 -12 11 -9 6 3 2 -2 -9 -11 -11 -9 -30
-18 -42 -22 -13 -3 -23 -9 -23 -14 0 -5 -4 -9 -9 -9 -5 0 -52 -27 -105 -60
-53 -34 -101 -58 -108 -54 -6 4 -8 3 -5 -3 6 -9 -35 -35 -68 -44 -5 -2 -19
-11 -29 -21 -15 -14 -23 -15 -33 -6 -8 6 -13 7 -12 2 4 -21 -2 -34 -15 -34 -7
0 -19 -7 -26 -15 -13 -16 -35 -21 -25 -6 3 5 1 12 -4 15 -5 4 -8 -2 -7 -11 3
-19 -42 -56 -56 -47 -4 3 -8 1 -8 -4 0 -6 -17 -20 -37 -32 -29 -17 -34 -18
-22 -4 13 16 12 16 -8 4 -12 -8 -19 -18 -17 -22 5 -8 0 -10 -28 -12 -7 -1 -21
-8 -30 -16 -36 -32 -46 -39 -52 -33 -3 4 -6 1 -6 -5 0 -7 -7 -12 -15 -12 -8 0
-15 -5 -15 -11 0 -5 -4 -8 -8 -5 -5 3 -18 -4 -30 -14 -24 -23 -37 -26 -26 -7
5 8 2 7 -9 -2 -17 -13 -16 -15 4 -37 12 -13 25 -21 30 -19 4 3 10 1 13 -4 3
-5 29 -21 58 -36 29 -15 58 -32 63 -38 7 -7 6 -8 -1 -4 -6 3 -11 0 -11 -8 0
-11 4 -12 13 -4 16 13 77 -19 67 -34 -3 -6 -1 -7 5 -3 14 8 173 -85 165 -97
-3 -6 -1 -7 5 -3 13 8 122 -53 122 -67 0 -4 5 -5 10 -2 6 3 10 3 10 -2 0 -4
18 -17 40 -27 22 -11 40 -23 40 -28 0 -4 3 -7 8 -5 10 3 176 -92 215 -123 17
-14 33 -25 36 -25 3 0 6 -9 5 -20 -1 -17 0 -18 9 -4 9 14 13 14 39 1 17 -8 27
-20 24 -27 -3 -8 3 -19 12 -27 15 -12 16 -11 4 4 -7 9 -9 19 -5 21 12 8 38
-10 38 -25 0 -7 9 -13 20 -13 12 0 32 -7 45 -15 14 -9 42 -24 63 -35 21 -11
47 -28 58 -38 10 -10 19 -14 19 -10 0 4 10 -3 21 -17 11 -14 18 -19 14 -12 -8
15 84 -34 105 -56 14 -14 13 -15 -5 -1 -18 13 -19 12 -7 -2 7 -10 21 -15 32
-12 11 3 20 1 20 -4 0 -5 7 -18 16 -29 8 -10 13 -13 9 -6 -4 7 0 12 9 12 9 0
16 -5 16 -12 0 -6 3 -8 6 -5 4 3 16 0 27 -8 11 -8 25 -11 31 -6 34 25 108 61
101 50 -4 -8 4 -2 19 14 15 15 31 27 36 27 21 0 25 -2 22 -12 -1 -5 2 -7 7 -3
6 3 8 12 5 20 -3 7 4 19 16 25 18 10 21 9 15 -2 -3 -7 0 -5 8 5 8 9 19 17 25
17 6 0 12 4 14 9 2 5 10 11 18 13 8 2 21 9 28 16 8 7 18 9 24 6 6 -4 8 -3 5 3
-5 8 48 44 70 46 4 1 16 8 26 17 10 8 21 15 25 15 4 1 33 18 64 38 60 39 74
45 62 25 -4 -7 -3 -8 5 -4 6 4 9 11 6 16 -3 5 6 12 20 16 14 3 25 10 25 14 0
5 16 14 35 21 19 7 35 16 35 19 0 4 24 19 53 34 56 29 66 35 141 81 27 16 53
29 58 28 4 -2 8 1 8 5 0 13 33 11 50 -2 13 -10 13 -9 1 7 -17 21 -13 26 57 63
80 44 105 58 132 75 114 72 222 129 231 123 7 -4 9 -3 6 3 -6 10 66 56 75 48
3 -3 5 2 5 10 0 8 -4 12 -8 9 -13 -8 -69 25 -66 39 1 6 -4 11 -12 9 -16 -3
-81 28 -81 39 0 4 -12 10 -26 13 -19 5 -24 11 -19 25 3 11 1 22 -4 26 -7 4 -8
-1 -4 -11 5 -13 3 -15 -7 -9 -9 6 -11 4 -5 -4 4 -7 -10 -1 -31 12 -22 14 -38
30 -37 35 1 5 -6 8 -16 5 -9 -2 -23 3 -30 11 -8 9 -20 16 -28 16 -7 0 -16 7
-19 15 -4 8 -10 12 -15 9 -5 -3 -9 0 -9 6 0 6 -4 9 -9 5 -6 -3 -15 4 -21 15
-6 11 -15 18 -20 15 -13 -8 -92 44 -85 56 4 5 10 7 14 5 4 -3 8 1 8 9 0 11 -5
10 -24 -2 -13 -9 -26 -13 -30 -9 -3 3 -26 -5 -50 -19 -23 -14 -43 -21 -43 -15
0 5 5 10 12 10 6 0 8 3 4 7 -3 4 -20 -10 -37 -31 -17 -20 -34 -35 -36 -32 -3
3 -14 -4 -26 -15 -19 -17 -38 -24 -60 -20 -5 1 -5 -4 -1 -10 5 -9 2 -10 -10
-6 -9 4 -15 3 -12 -2 9 -14 -22 -34 -44 -28 -10 3 -19 2 -18 -2 2 -19 -5 -29
-29 -41 -16 -7 -31 -13 -34 -12 -12 2 -17 -38 -7 -45 7 -3 8 -1 4 5 -12 19 -1
14 80 -34 l76 -47 -53 -33 c-30 -19 -59 -34 -66 -34 -6 0 -18 -6 -25 -13 -26
-25 -163 -101 -180 -100 -10 1 -18 -5 -18 -14 0 -10 -6 -13 -16 -9 -10 4 -13
2 -8 -6 5 -8 2 -9 -10 -5 -9 4 -15 3 -12 -2 3 -5 -11 -17 -32 -28 -20 -10 -49
-27 -64 -37 -16 -10 -34 -16 -42 -13 -11 4 -13 1 -9 -10 4 -11 2 -14 -5 -9 -7
4 -12 2 -12 -4 0 -6 -4 -8 -10 -5 -5 3 -10 2 -10 -4 0 -14 -90 -62 -103 -54
-5 3 -7 1 -4 -4 4 -6 -7 -16 -24 -23 -26 -11 -32 -11 -40 1 -5 8 -9 10 -9 4 0
-5 -4 -4 -9 4 -5 8 -16 16 -24 17 -15 2 -142 75 -164 94 -7 5 -17 10 -23 10
-5 0 -10 4 -10 10 0 5 -3 9 -7 8 -12 -3 -71 30 -79 44 -5 9 -1 8 12 -2 17 -12
17 -12 6 0 -7 8 -22 16 -32 16 -38 3 -41 4 -34 16 4 7 3 8 -5 4 -7 -5 -26 3
-46 18 -18 14 -39 26 -46 26 -8 0 -8 5 2 18 13 15 12 16 -3 4 -14 -12 -24 -10
-62 13 -25 15 -46 31 -46 36 0 5 -3 8 -7 8 -20 -3 -35 3 -55 23 -13 13 -29 23
-38 23 -37 0 -9 30 65 68 44 23 81 45 83 50 6 12 24 8 46 -10 21 -18 21 -18 3
3 -18 21 -18 22 4 38 20 14 24 14 36 -2 8 -9 11 -11 8 -4 -8 15 23 54 36 46 5
-3 9 0 9 6 0 6 5 8 10 5 6 -3 10 -1 10 5 0 6 5 8 10 5 6 -4 7 -11 4 -17 -4 -7
-2 -8 4 -4 6 4 9 12 7 19 -5 11 172 122 206 129 8 2 20 10 27 18 12 13 13 13
6 0 -4 -8 3 -5 15 8 25 25 33 28 25 8 -3 -8 -1 -17 5 -21 7 -3 8 0 5 9 -7 19
33 59 52 52 10 -4 12 -2 8 5 -4 7 -3 10 2 7 5 -2 24 -10 42 -17 17 -7 32 -17
32 -22 0 -5 3 -8 8 -7 4 1 30 -10 59 -25 60 -31 39 -37 187 56 75 46 104 58
90 36 -4 -8 0 -8 15 0 25 14 28 22 4 15 -13 -4 -11 0 6 15 14 13 32 19 47 17
14 -3 22 -1 19 5 -4 5 -11 7 -16 4 -5 -4 -9 -4 -9 -2 0 2 18 16 40 30 27 18
41 23 46 15 4 -6 3 -8 -4 -4 -6 3 -13 2 -16 -3 -11 -16 11 -22 24 -6 7 8 9 15
5 15 -4 0 -2 7 5 15 10 12 10 15 -4 15 -9 0 -16 5 -16 10 0 6 -6 10 -13 10 -7
0 -22 7 -33 16 -10 8 -13 12 -5 8 9 -5 12 -3 7 5 -4 6 -12 9 -17 5 -11 -7 -79
34 -79 47 0 6 -4 8 -9 4 -14 -8 -82 35 -74 48 3 7 14 21 25 33 15 16 15 21 4
21 -8 0 -13 -4 -11 -8 7 -10 -20 -30 -29 -22 -4 4 -4 0 0 -10 8 -21 -9 -22
-30 -2 -8 8 -19 15 -23 15 -5 0 -18 7 -29 16 -18 14 -18 15 6 9 21 -5 22 -4 7
5 -10 6 -23 9 -30 7 -15 -6 -76 29 -100 57 -10 12 -16 15 -12 9 4 -9 1 -11 -9
-7 -9 3 -13 11 -9 17 3 6 1 7 -5 3 -19 -12 -53 16 -46 39 6 20 6 20 -10 0 -12
-16 -16 -17 -17 -5 -1 8 -1 18 0 23 2 11 -3 9 -29 -17z"/>
<path d="M379 3562 c-1 -7 -2 -18 -3 -24 -1 -7 1 -17 4 -23 19 -28 61 -165 55
-176 -5 -8 -4 -10 3 -5 7 4 12 3 12 -3 0 -5 3 -17 7 -27 5 -13 3 -15 -8 -10
-8 4 -6 1 4 -7 18 -15 24 -33 8 -22 -11 6 -6 -34 5 -44 4 -3 4 2 1 12 -4 9 -3
17 1 17 4 0 18 -30 29 -66 19 -57 19 -64 5 -52 -10 7 -8 2 4 -12 31 -36 47
-89 33 -107 -9 -10 -9 -12 3 -8 17 7 54 -87 42 -106 -4 -8 -3 -9 4 -5 7 4 13
1 13 -8 2 -20 3 -25 17 -59 15 -36 15 -50 0 -41 -7 4 -8 3 -4 -5 4 -6 11 -9
15 -6 7 4 45 -103 46 -130 0 -5 3 -12 6 -15 10 -8 59 -150 53 -150 -4 0 -1 -7
6 -15 7 -8 10 -24 7 -35 -3 -11 -1 -18 3 -15 5 3 17 -22 28 -55 10 -33 14 -56
8 -53 -6 4 -2 -3 8 -15 10 -12 19 -35 20 -51 1 -16 4 -27 7 -25 12 7 88 -233
77 -244 -6 -6 -6 -12 3 -17 8 -6 10 -4 4 5 -6 9 -4 11 4 6 7 -5 10 -14 7 -22
-3 -8 0 -14 6 -14 6 0 9 -3 5 -6 -3 -4 0 -19 8 -35 18 -34 19 -42 3 -34 -7 4
-6 1 3 -7 9 -7 25 -42 37 -76 18 -54 19 -62 5 -50 -15 12 -15 11 -3 -9 8 -12
19 -19 25 -15 5 3 3 -3 -5 -13 -9 -11 -10 -16 -2 -11 13 8 28 -22 34 -66 2
-13 8 -30 13 -38 8 -13 7 -13 -8 -1 -9 7 -15 17 -12 21 3 5 1 11 -4 14 -19 12
-3 -28 18 -45 13 -11 24 -30 25 -44 0 -14 4 -25 9 -25 4 0 7 -7 7 -16 0 -9 -5
-12 -12 -8 -7 4 -8 3 -4 -5 4 -6 12 -8 18 -5 7 5 9 1 5 -9 -3 -10 -3 -17 1
-17 12 0 64 -158 56 -171 -5 -8 -3 -9 5 -4 9 5 12 1 9 -12 -2 -11 2 -26 8 -34
13 -16 56 -142 53 -155 -1 -5 8 -31 21 -58 12 -27 23 -59 24 -72 0 -12 4 -20
7 -18 3 2 14 -24 24 -57 20 -65 39 -84 128 -130 26 -13 47 -27 47 -31 0 -3 16
-12 35 -18 19 -6 35 -16 35 -21 0 -5 6 -9 14 -9 7 0 19 -7 26 -15 7 -9 15 -13
18 -10 3 3 19 -7 35 -22 17 -16 26 -22 22 -14 -6 10 1 8 23 -4 17 -10 29 -22
26 -26 -2 -4 1 -11 7 -15 8 -4 9 -3 5 4 -10 17 10 15 26 -2 8 -7 24 -17 36
-20 12 -4 22 -11 22 -15 0 -4 6 -8 13 -8 22 0 87 -45 80 -56 -3 -5 -1 -7 5 -4
14 9 43 -3 36 -14 -3 -5 1 -6 9 -3 8 3 18 0 23 -7 5 -8 3 -10 -7 -4 -8 5 -11
4 -6 0 4 -5 17 -10 28 -12 24 -4 69 -32 69 -44 0 -5 7 -5 17 -2 12 5 14 3 8
-7 -5 -9 -4 -11 3 -6 10 6 54 -15 72 -34 3 -3 10 -6 15 -7 23 -3 94 -50 88
-57 -4 -4 0 -4 10 0 9 3 17 17 17 29 0 32 13 38 28 14 9 -14 9 -19 0 -19 -6 0
-9 -3 -5 -6 3 -3 10 -3 16 1 7 4 5 14 -5 30 -9 14 -20 22 -26 19 -16 -10 -6
90 11 102 16 12 25 48 10 38 -5 -3 -7 -9 -4 -14 3 -5 0 -12 -6 -15 -7 -5 -9 3
-7 21 2 23 15 35 62 62 33 18 65 31 72 28 7 -3 18 3 26 12 12 16 11 16 -7 2
-19 -14 -19 -14 -6 3 7 9 18 17 23 17 6 0 22 9 38 20 15 11 37 18 48 15 14 -2
19 1 16 10 -7 17 51 49 69 39 7 -4 9 -4 5 1 -4 4 0 14 10 21 13 9 20 10 31 1
11 -9 13 -9 8 0 -10 16 59 63 86 59 5 0 13 7 18 16 5 9 25 22 44 28 19 6 35
15 35 20 0 4 14 13 31 19 26 9 30 8 25 -5 -3 -9 -2 -12 5 -9 6 4 8 13 5 21 -6
16 29 38 46 28 6 -4 8 -3 5 3 -3 5 8 18 26 28 18 10 47 27 66 38 23 14 32 16
26 6 -4 -8 2 -4 14 9 23 23 36 27 44 15 2 -5 2 -2 1 4 -2 7 6 18 18 24 16 9
19 8 13 -3 -5 -7 3 -1 18 14 23 25 32 30 53 27 3 0 12 8 19 18 7 10 17 15 20
11 10 -10 47 11 40 22 -7 12 27 140 37 140 4 0 5 7 2 15 -4 8 -1 16 5 16 26 3
30 4 38 13 5 5 3 6 -4 2 -8 -4 -13 -2 -13 6 0 10 -3 9 -11 -2 -7 -11 -8 -6 -4
20 4 19 12 40 18 45 7 7 7 6 2 -3 -6 -11 -3 -12 14 -3 21 11 21 13 4 35 -17
22 -20 23 -46 9 -16 -8 -35 -12 -43 -9 -8 3 -13 2 -10 -3 3 -5 -2 -15 -11 -22
-9 -8 -14 -9 -11 -4 4 6 -6 10 -23 10 -15 1 -26 -2 -23 -5 3 -3 10 -5 15 -5 5
0 8 -4 7 -10 -2 -5 -9 -9 -15 -9 -7 1 -10 -3 -6 -9 4 -6 0 -8 -11 -4 -10 4
-15 3 -11 -3 6 -10 -68 -52 -79 -45 -3 3 -4 2 -1 -2 8 -10 -74 -55 -87 -47 -6
4 -8 3 -5 -3 8 -13 -20 -26 -35 -16 -6 3 -8 1 -5 -4 9 -14 -109 -86 -125 -77
-6 4 -8 3 -5 -3 4 -5 -6 -16 -21 -24 -43 -21 -48 -22 -27 -4 13 11 14 16 5 13
-8 -2 -19 -14 -24 -25 -6 -11 -35 -34 -65 -49 -31 -16 -59 -33 -63 -39 -8 -10
-12 0 -9 18 1 5 -3 6 -8 2 -6 -3 -8 -11 -5 -18 2 -7 -9 -20 -25 -30 -32 -19
-45 -22 -37 -9 3 5 -1 9 -8 9 -7 0 -13 -7 -12 -15 1 -20 -252 -173 -277 -168
-9 2 -15 1 -12 -4 3 -4 -2 -13 -9 -19 -11 -10 -17 -8 -26 6 -9 16 -10 15 -5
-7 4 -17 3 -21 -3 -12 -5 8 -13 14 -18 14 -21 -1 -73 31 -67 41 3 5 1 7 -5 3
-13 -8 -82 31 -82 47 0 6 -3 8 -6 4 -11 -10 -65 23 -58 35 4 7 3 8 -4 4 -16
-10 -54 12 -46 26 5 7 2 8 -5 4 -7 -5 -19 0 -27 10 -9 11 -13 13 -9 6 3 -6
-10 -2 -30 10 -20 13 -45 28 -56 34 -11 6 -20 15 -19 19 1 3 -2 10 -6 13 -4 4
-4 1 1 -7 10 -17 5 -15 -67 27 -32 19 -58 38 -58 43 0 5 -3 8 -7 7 -5 -1 -19
4 -33 9 -20 8 -32 28 -53 88 -15 42 -24 81 -21 86 3 5 1 9 -5 9 -8 0 -18 29
-24 67 0 5 -7 19 -14 33 -11 22 -11 27 4 38 11 8 20 9 27 2 5 -5 14 -10 20
-10 5 0 1 6 -9 14 -14 10 -25 11 -37 5 -15 -8 -20 -4 -29 18 -6 15 -12 40 -14
55 -1 15 -7 33 -13 40 -6 7 -14 26 -18 42 l-7 29 69 -38 c38 -21 74 -44 80
-51 6 -8 15 -10 19 -6 5 4 5 -2 1 -13 -4 -11 -4 -16 0 -12 4 4 14 1 23 -6 14
-11 14 -10 2 6 -19 24 -6 21 19 -5 11 -12 20 -18 20 -14 0 9 134 -64 138 -76
2 -4 10 -8 18 -8 8 0 14 -5 14 -11 0 -5 4 -8 9 -5 5 4 23 -6 40 -20 17 -14 31
-23 31 -19 0 7 129 -63 145 -78 7 -7 5 -7 -4 -2 -9 5 -12 4 -7 -3 4 -6 13 -9
21 -5 8 3 15 1 15 -4 0 -5 6 -10 13 -10 7 0 25 -8 40 -18 21 -13 25 -20 15
-26 -11 -7 -11 -9 0 -9 7 0 11 -4 8 -8 -3 -5 1 -9 9 -9 11 0 12 4 4 14 -9 10
-8 13 4 13 9 0 19 -4 22 -10 10 -16 35 -12 35 6 0 14 2 15 18 3 16 -13 16 -13
0 7 -14 16 -17 35 -14 101 4 88 10 107 33 99 8 -3 12 -2 9 3 -3 5 1 12 10 15
10 4 13 2 9 -7 -4 -6 3 -2 14 11 12 14 25 20 32 16 8 -4 9 -3 5 4 -4 7 3 14
19 18 14 3 25 9 25 13 0 12 51 32 62 25 7 -4 8 -2 4 4 -8 13 87 65 99 54 5 -4
4 -1 0 7 -6 11 -4 13 9 8 9 -4 15 -3 12 2 -5 7 43 36 53 31 2 -1 7 2 10 8 7
10 94 62 105 62 4 0 4 -5 0 -12 -4 -7 -3 -8 5 -4 6 4 9 11 7 15 -3 4 4 13 16
20 11 7 17 8 14 2 -4 -5 -2 -13 4 -16 6 -4 10 -3 9 2 -3 20 2 34 11 28 6 -3
10 -2 10 2 0 5 13 16 28 25 23 14 31 15 41 5 10 -9 11 -8 5 7 -5 14 -4 17 4
12 7 -4 14 -1 17 6 3 7 36 29 73 48 37 19 69 38 72 41 11 13 68 38 74 32 3 -4
6 -1 6 5 0 6 14 18 30 27 17 9 30 12 30 8 0 -4 6 0 13 9 13 17 262 158 278
158 6 0 7 -6 3 -12 -4 -8 -3 -10 2 -5 5 5 9 14 9 20 0 12 95 71 95 59 0 -4 4
-1 9 6 4 7 16 15 27 16 16 3 46 72 68 161 25 101 31 115 55 125 22 9 22 10 4
6 -13 -2 -23 0 -23 5 0 5 4 9 10 9 5 0 7 6 4 14 -3 8 -16 13 -29 12 -13 0 -21
-4 -19 -7 2 -3 -12 -14 -31 -25 -19 -10 -82 -48 -141 -83 -86 -52 -108 -61
-116 -50 -8 11 -9 10 -4 -4 4 -13 -2 -20 -21 -28 -15 -6 -30 -13 -33 -17 -10
-14 -134 -84 -151 -85 -10 -1 -17 -6 -16 -12 1 -5 -6 -9 -15 -9 -10 1 -15 -2
-12 -7 3 -5 -2 -9 -10 -9 -9 0 -16 -3 -16 -7 0 -5 -26 -21 -57 -38 -32 -16
-64 -36 -71 -42 -15 -15 -46 -18 -38 -4 3 5 -2 15 -11 22 -15 12 -16 12 -8 -1
22 -36 5 -71 -22 -48 -10 8 -12 7 -8 -5 4 -10 -4 -20 -25 -30 -19 -10 -28 -11
-24 -4 3 7 -3 3 -13 -9 -25 -29 -141 -97 -152 -89 -5 3 -13 0 -17 -6 -5 -8 -3
-9 7 -4 9 5 10 5 4 -2 -21 -20 -204 -123 -220 -123 -9 0 -14 -3 -11 -8 2 -4
-9 -15 -25 -25 -18 -10 -27 -12 -23 -4 4 6 -5 1 -19 -12 -15 -14 -27 -21 -27
-18 0 4 -9 -2 -20 -13 -12 -12 -25 -18 -29 -15 -5 2 -12 -2 -15 -11 -3 -8 -10
-12 -16 -9 -5 3 -10 2 -10 -2 0 -5 -13 -17 -30 -26 -28 -17 -31 -17 -70 3 -22
11 -38 25 -35 30 3 6 -1 7 -9 4 -9 -3 -16 -1 -16 5 0 6 -3 10 -7 9 -13 -3 -73
32 -73 42 0 6 -3 9 -7 8 -15 -3 -43 14 -37 23 3 5 -3 6 -12 2 -12 -4 -15 -3
-10 5 5 8 1 10 -10 5 -13 -5 -15 -3 -9 7 5 9 4 11 -3 6 -10 -6 -55 15 -72 34
-3 3 -30 18 -60 34 -30 16 -73 41 -95 55 -22 14 -53 32 -68 40 -18 10 -26 20
-22 30 5 12 3 13 -5 5 -17 -17 -105 33 -91 50 8 9 7 13 -4 13 -8 0 -12 -4 -9
-9 11 -17 -14 -7 -54 22 -23 16 -47 30 -53 30 -5 0 -7 5 -3 12 4 7 3 8 -4 4
-15 -9 -55 18 -44 29 4 5 1 5 -5 1 -7 -4 -22 -2 -33 4 -16 9 -19 15 -10 25 8
10 8 15 -1 21 -7 4 -9 3 -5 -4 12 -19 -14 -24 -39 -8 -14 9 -24 20 -24 24 3
19 -2 23 -15 13 -10 -9 -17 -6 -28 11 -23 36 -40 90 -25 81 8 -4 7 -1 -1 10
-8 9 -11 20 -8 25 3 6 -1 15 -9 22 -16 13 -39 76 -37 103 0 9 -4 17 -10 17 -6
0 -8 3 -5 7 4 3 3 11 -2 17 -5 6 -11 22 -13 36 -1 14 -6 27 -10 30 -4 3 -9 17
-10 30 -2 14 -5 27 -8 30 -9 9 -30 73 -25 78 2 2 29 -11 60 -29 31 -19 68 -40
82 -48 20 -11 23 -15 12 -23 -11 -8 -10 -9 4 -4 18 6 87 -22 87 -36 0 -4 6 -8
14 -8 8 0 18 -5 22 -12 5 -7 3 -8 -6 -3 -8 5 -11 4 -6 -3 4 -6 13 -9 20 -6 15
6 127 -56 120 -67 -2 -4 1 -11 7 -15 8 -4 9 -3 5 4 -12 19 1 14 70 -28 36 -22
68 -40 70 -40 14 0 84 -52 79 -59 -3 -5 5 -7 16 -4 16 5 20 2 17 -8 -3 -8 -12
-12 -19 -11 -8 2 -10 0 -6 -4 10 -10 37 -14 36 -6 -3 20 5 19 49 -8 26 -16 62
-36 81 -45 24 -11 31 -19 27 -31 -5 -14 -4 -15 7 -5 11 9 17 8 26 -3 7 -8 23
-17 36 -20 14 -4 25 -11 25 -17 0 -6 5 -7 10 -4 6 3 10 2 10 -3 0 -6 11 -13
25 -16 17 -4 23 -11 19 -19 -4 -7 -4 -9 1 -5 10 10 47 -10 40 -22 -3 -5 -1
-11 4 -14 5 -4 12 -2 16 3 6 10 63 -18 97 -47 17 -14 18 -13 18 12 0 15 4 25
9 22 5 -3 15 2 22 12 13 15 12 16 -3 4 -22 -17 -35 3 -16 25 10 13 10 15 0 9
-10 -6 -12 7 -10 62 4 73 15 97 51 108 12 3 29 12 37 19 8 8 22 15 30 17 8 2
39 20 68 40 30 20 60 34 67 32 7 -3 18 4 25 15 6 12 15 21 21 21 5 0 27 11 47
25 38 26 58 32 47 16 -3 -5 -1 -12 4 -16 6 -3 8 3 6 13 -4 22 48 57 68 46 6
-4 9 -3 4 1 -4 5 5 17 20 27 32 20 58 24 47 6 -4 -7 -3 -8 5 -4 6 4 9 11 6 16
-3 4 3 14 12 21 14 12 16 12 11 -2 -4 -9 -1 -16 7 -16 7 0 11 5 9 12 -4 10 23
35 65 60 10 6 12 4 7 -6 -4 -8 -1 -6 7 4 16 20 60 47 116 73 19 8 41 22 49 31
8 8 23 12 34 10 10 -3 16 -1 13 4 -7 10 55 50 66 44 4 -3 9 1 12 9 3 8 22 20
41 27 20 7 36 17 36 21 0 4 5 8 11 8 6 0 23 9 39 20 15 11 30 17 34 13 3 -3 6
0 6 7 0 7 3 10 6 7 4 -4 20 5 36 18 16 14 34 23 39 19 5 -3 9 -1 9 5 0 13 55
42 64 34 3 -4 6 -1 6 5 0 14 57 45 70 37 5 -3 12 0 16 6 4 8 3 9 -4 5 -7 -4
-12 -5 -12 -2 0 9 63 36 71 30 5 -3 8 0 7 7 -2 7 2 14 7 14 18 2 65 28 65 35
0 13 58 32 71 24 8 -4 10 -3 5 4 -9 14 71 65 90 58 7 -3 16 0 20 6 5 7 2 8 -7
3 -12 -8 -12 -6 0 9 11 13 16 14 22 4 7 -10 9 -9 9 5 0 9 6 17 14 17 7 0 19 7
26 15 7 9 19 14 27 11 8 -3 11 -1 8 4 -3 6 -2 10 4 10 5 0 18 26 27 58 10 31
25 66 33 76 9 11 11 16 4 12 -9 -5 -8 7 3 41 8 26 17 61 21 77 5 25 4 28 -12
22 -16 -6 -16 -4 -4 11 7 10 -2 3 -20 -14 -31 -30 -44 -37 -63 -34 -5 0 -8 -4
-8 -10 0 -5 -4 -8 -9 -4 -6 3 -13 -1 -18 -8 -9 -16 -53 -41 -53 -30 0 4 -7 -2
-15 -13 -8 -10 -15 -14 -15 -9 0 6 -3 6 -8 -1 -11 -16 -82 -57 -82 -47 0 4 -4
3 -8 -3 -12 -18 -86 -59 -78 -43 4 8 -1 4 -12 -8 -11 -12 -22 -19 -26 -16 -3
4 -6 1 -6 -5 0 -9 -40 -28 -48 -23 -2 1 -9 -5 -16 -14 -8 -11 -21 -15 -39 -11
-16 3 -25 1 -22 -5 4 -5 12 -7 18 -4 28 13 -40 -32 -82 -55 -25 -14 -78 -44
-118 -68 -75 -44 -89 -50 -77 -30 4 7 3 8 -5 4 -6 -4 -9 -11 -7 -15 3 -4 -4
-13 -16 -20 -11 -7 -17 -8 -14 -2 4 5 1 13 -6 17 -7 4 -10 4 -6 0 11 -13 -64
-74 -84 -68 -5 1 -8 -3 -8 -9 0 -6 -7 -8 -16 -5 -8 3 -13 2 -10 -3 3 -5 -16
-19 -42 -32 -26 -13 -49 -26 -52 -29 -16 -16 -52 -30 -62 -24 -6 4 -8 3 -4 -4
3 -6 -14 -21 -40 -36 -52 -29 -58 -31 -48 -14 4 7 3 8 -5 4 -6 -4 -9 -11 -7
-14 2 -4 -13 -17 -35 -29 -22 -12 -36 -16 -33 -10 4 7 -3 2 -15 -10 -20 -21
-34 -27 -53 -24 -5 0 -8 -4 -8 -9 0 -6 -12 -16 -27 -23 -16 -6 -34 -17 -41
-24 -17 -16 -36 -17 -26 -1 5 7 3 8 -5 4 -7 -5 -10 -10 -7 -14 3 -3 -2 -11
-12 -18 -13 -9 -19 -9 -24 -1 -5 8 -8 6 -8 -6 0 -10 -4 -15 -10 -12 -5 3 -10
1 -10 -5 0 -6 -4 -9 -9 -5 -6 3 -13 0 -18 -7 -9 -14 -48 -39 -103 -66 -19 -9
-41 -23 -48 -29 -7 -7 -19 -13 -26 -13 -8 0 -19 -7 -26 -15 -7 -9 -19 -14 -27
-11 -8 3 -11 1 -8 -4 6 -9 -2 -12 -22 -9 -3 0 -10 -6 -15 -15 -5 -9 -16 -16
-24 -16 -17 0 -91 45 -114 69 -8 9 -11 11 -6 3 8 -11 5 -11 -17 -1 -15 7 -27
15 -27 19 0 3 -16 12 -35 19 -19 7 -33 16 -30 21 3 5 0 12 -6 16 -8 4 -9 3 -5
-4 11 -18 3 -15 -68 26 -37 21 -63 42 -59 46 4 4 0 4 -10 0 -9 -3 -17 -2 -17
3 0 5 -16 15 -35 22 -19 7 -33 17 -30 22 4 5 -3 9 -14 9 -12 0 -21 5 -21 12 0
6 -3 8 -6 5 -7 -6 -55 19 -152 80 -51 32 -52 34 -37 56 14 22 13 23 -14 22
-15 0 -28 -5 -28 -12 0 -6 3 -11 6 -10 3 1 7 -1 9 -6 5 -15 -12 -8 -103 44
-81 45 -93 55 -82 68 10 14 10 14 -4 3 -18 -13 -53 -6 -43 9 3 5 2 8 -3 7 -14
-4 -53 13 -53 23 0 5 -3 8 -7 7 -14 -4 -153 78 -146 86 4 4 0 4 -9 1 -21 -8
-33 12 -18 30 9 11 7 13 -7 10 -10 -1 -17 -8 -15 -14 3 -14 -88 35 -105 57 -7
9 -13 12 -13 8 0 -10 -92 43 -102 58 -4 6 -8 7 -8 3 0 -5 -12 0 -27 10 -16 10
-53 32 -83 48 -30 15 -57 32 -60 35 -3 4 -15 10 -28 14 -12 4 -20 12 -17 17 3
5 0 6 -7 4 -8 -3 -24 4 -36 15 -12 11 -22 18 -22 15 0 -3 -9 -1 -20 5 -11 6
-19 16 -17 23 1 7 -6 11 -15 9 -19 -3 -125 54 -120 64 2 3 1 8 -2 12 -3 3 -7
0 -7 -6z"/>
</g>
</svg>
