<svg version="1.1" id="Layer_1" xmlns="http://www.w3.org/2000/svg" xmlns:xlink="http://www.w3.org/1999/xlink" x="0px" y="0px"
	 width="100%" viewBox="0 0 1024 608" enable-background="new 0 0 1024 608" xml:space="preserve">
<path fill="#000000" opacity="1.000000" stroke="none" 
	d="
M581.657715,363.598572 
	C592.971863,357.027374 603.962891,350.627960 614.953918,344.228577 
	C615.364624,344.542328 615.775269,344.856079 616.185913,345.169861 
	C614.442200,351.475983 612.444946,357.725983 611.031982,364.105347 
	C609.822693,369.565216 606.892700,372.868317 601.954041,375.625580 
	C574.175110,391.134460 546.635010,407.070648 518.934631,422.721649 
	C515.638000,424.584320 514.005310,426.693573 514.261108,430.591370 
	C514.562317,435.180511 514.331726,439.804535 514.331726,444.134491 
	C511.703491,445.110229 510.359802,443.881104 508.968750,443.089355 
	C482.762390,428.173157 456.587555,413.201447 430.357330,398.327393 
	C427.932465,396.952332 426.891235,394.909302 426.067657,392.496460 
	C407.944183,339.399078 389.816467,286.303131 371.667084,233.214584 
	C362.511200,206.432816 353.306335,179.667786 344.146942,152.887207 
	C343.739532,151.695908 342.806793,150.546661 343.541626,149.030731 
	C345.932129,148.560104 347.582733,150.255798 349.351044,151.260223 
	C402.367218,181.374771 455.368256,211.516190 508.294922,241.787506 
	C511.625244,243.692276 514.082947,243.734909 517.416870,241.836594 
	C570.838440,211.418777 624.330505,181.124634 677.822998,150.831528 
	C679.487000,149.889206 680.965515,148.281143 684.087952,148.930115 
	C681.625061,156.893738 679.256409,164.762436 676.722351,172.577499 
	C676.185730,174.232162 674.363281,174.846878 672.925110,175.672150 
	C622.213318,204.772812 571.535339,233.932846 520.726746,262.863434 
	C515.944641,265.586365 513.551819,268.490173 514.089600,274.165161 
	C514.454651,278.017548 514.750244,282.094757 512.950195,287.037201 
	C478.264771,267.064484 443.912415,247.283524 409.012146,227.187073 
	C408.793732,231.011902 410.281219,233.635635 411.168793,236.380829 
	C414.497192,246.675079 417.943207,256.932373 421.153015,267.263214 
	C422.065186,270.199127 423.736938,272.015747 426.347473,273.544800 
	C454.089539,289.794067 481.809906,306.081726 509.418060,322.556824 
	C512.641235,324.480255 514.878723,324.305695 517.973633,322.469543 
	C559.810120,297.648499 601.718079,272.947906 643.628845,248.252319 
	C645.435730,247.187683 647.132446,245.691650 649.769653,245.711792 
	C650.153381,249.960876 647.797241,253.456650 647.259216,257.290100 
	C645.542236,269.522247 638.349792,276.439148 627.520691,282.286377 
	C591.765503,301.592621 556.689209,322.152679 521.206360,341.970245 
	C516.061279,344.843811 513.381653,348.018372 514.241333,354.072205 
	C514.724182,357.472595 514.328308,360.997772 514.328308,366.245361 
	C489.888977,352.595459 466.651306,339.616730 443.449768,326.658142 
	C441.879822,328.647919 443.108246,330.027924 443.519806,331.269989 
	C447.444580,343.115601 451.542542,354.903748 455.498901,366.739075 
	C456.334778,369.239502 457.680878,371.029694 460.008057,372.388855 
	C476.838135,382.218567 493.632233,392.110840 510.365875,402.103638 
	C512.557739,403.412506 514.166199,403.278503 516.280457,402.028259 
	C537.934265,389.223419 559.641907,376.509613 581.657715,363.598572 
z"/>
<path fill="#000000" opacity="1.000000" stroke="none" 
	d="
M599.186829,159.246246 
	C571.904236,175.024963 544.922729,190.595200 518.013123,206.288574 
	C514.793030,208.166504 512.176880,208.423538 508.817047,206.439301 
	C466.644379,181.532684 424.393982,156.757629 382.178741,131.923050 
	C380.800568,131.112289 379.021210,130.673233 378.500854,128.782349 
	C379.011108,126.908928 380.750122,126.440948 382.129364,125.622047 
	C424.532684,100.445877 466.955750,75.302948 509.332245,50.081779 
	C511.862091,48.576099 513.935181,48.054691 516.664856,49.694168 
	C531.374695,58.529209 546.176758,67.210655 560.935059,75.965218 
	C562.059998,76.632515 563.315247,77.215729 563.816223,78.631966 
	C563.440125,80.532089 561.714417,81.089745 560.347046,81.935829 
	C551.564087,87.370407 542.675049,92.638145 533.989380,98.222771 
	C530.902100,100.207825 528.065063,100.678596 525.370178,98.265205 
	C516.978027,90.749496 509.391632,92.746315 500.527710,98.338638 
	C484.763977,108.284134 468.228180,117.005692 452.019653,126.246857 
	C451.047028,126.801399 450.112732,127.423286 448.524719,128.408264 
	C456.347626,133.041748 463.584961,137.380692 470.872620,141.633362 
	C483.966492,149.274216 497.100281,156.846725 510.191650,164.491837 
	C512.148804,165.634796 513.794556,166.346954 516.137085,164.979630 
	C535.990967,153.391190 555.922668,141.936066 575.829041,130.437561 
	C576.401306,130.107010 576.952026,129.739014 577.700562,129.271118 
	C574.153137,124.580650 568.543396,123.604507 565.198181,119.949600 
	C565.245789,117.800278 566.894226,117.342896 568.091125,116.602455 
	C577.017273,111.080566 586.015625,105.674599 594.907654,100.098862 
	C597.254089,98.627556 599.311829,98.129066 601.828125,99.648796 
	C617.512390,109.121277 633.238403,118.524811 648.940674,127.967545 
	C649.197815,128.122162 649.331360,128.482269 650.202026,129.685333 
	C633.245056,139.516373 616.377319,149.295639 599.186829,159.246246 
z"/>
<path fill="#000000" opacity="1.000000" stroke="none" 
	d="
M467.369904,470.681946 
	C478.022919,468.566895 484.530151,472.634918 488.113464,482.301971 
	C488.989197,484.664368 490.185028,487.201843 492.925232,489.475800 
	C495.803802,484.717346 498.885742,480.266113 501.284332,475.472931 
	C503.583588,470.878357 506.731506,469.618652 511.339325,471.233490 
	C512.337219,472.703247 511.369843,473.855072 510.760468,474.950745 
	C508.819519,478.440674 506.950287,481.990479 504.733368,485.303040 
	C498.673615,494.357666 494.504059,503.858429 496.280701,515.139526 
	C496.748871,518.112183 495.991577,520.294617 492.120728,520.253601 
	C488.523041,520.215393 487.168396,518.515625 487.705780,515.314453 
	C489.672211,503.600464 484.904114,493.922913 478.705414,484.641479 
	C476.531097,481.385773 475.135529,477.587189 472.221802,474.809418 
	C470.127686,475.972290 470.045624,477.975677 469.482391,479.621582 
	C465.442932,491.425812 461.417053,503.236023 457.562592,515.101379 
	C456.544098,518.236633 455.436554,520.379456 451.517609,520.335754 
	C447.898773,520.295410 446.657440,518.448059 445.674561,515.468994 
	C441.348389,502.356964 436.887085,489.289520 432.465240,476.209137 
	C431.937744,474.648743 431.222961,473.123871 431.774750,471.451874 
	C438.978668,469.629089 439.908417,470.057892 442.137115,476.537964 
	C445.266815,485.637726 448.329071,494.760681 451.712219,504.734802 
	C454.803955,499.739014 455.640594,494.815613 457.399231,490.296112 
	C459.387848,485.185577 460.988342,479.921387 462.675842,474.697540 
	C463.374634,472.534424 464.063507,470.515472 467.369904,470.681946 
z"/>
<path fill="#000000" opacity="1.000000" stroke="none" 
	d="
M629.165894,519.729187 
	C621.771973,519.979187 614.788391,520.069336 607.805847,520.212036 
	C604.788452,520.273682 603.719788,518.734436 603.728638,515.879822 
	C603.771179,502.226593 603.797119,488.572662 603.695435,474.920013 
	C603.670776,471.604034 605.125000,470.553986 608.229187,470.631348 
	C613.387451,470.759918 618.552063,470.699890 623.713074,470.642120 
	C629.798401,470.574036 635.577087,471.371490 638.594727,477.552032 
	C641.541809,483.588196 639.746094,488.839264 634.903381,493.099823 
	C645.072510,505.154327 642.672668,516.579285 629.165894,519.729187 
M612.870667,503.491058 
	C612.812988,505.652069 612.735962,507.812775 612.704285,509.974152 
	C612.682129,511.487000 613.210571,512.647766 614.953735,512.611206 
	C618.925903,512.527954 622.952026,513.263000 626.854187,512.054749 
	C629.793335,511.144623 631.779297,509.335938 631.878845,506.001526 
	C631.983398,502.500305 630.705627,499.875732 627.324341,498.459595 
	C624.300659,497.193237 621.110229,497.629364 617.982910,497.330139 
	C613.741455,496.924286 612.129272,498.593719 612.870667,503.491058 
M625.894287,489.669830 
	C629.082886,488.563232 631.125732,486.406006 630.515503,482.961548 
	C629.846008,479.182251 626.758301,478.173828 623.355774,478.171295 
	C619.932007,478.168732 616.447510,477.538940 613.142334,478.700531 
	C611.735779,491.400452 610.687744,491.538300 624.638123,489.973846 
	C624.801636,489.955505 624.960510,489.896179 625.894287,489.669830 
z"/>
<path fill="#000000" opacity="1.000000" stroke="none" 
	d="
M395.258698,490.471130 
	C395.266724,498.893860 395.250763,506.882507 395.278107,514.870972 
	C395.287750,517.689575 395.312164,520.256287 391.279114,520.223999 
	C387.303802,520.192200 387.416687,517.840698 387.357300,514.889404 
	C387.103027,502.248199 386.779327,489.611511 387.464630,476.974762 
	C387.587616,474.707489 385.888580,471.330200 389.603394,470.897430 
	C393.127777,470.486908 397.181152,469.242920 399.736511,473.820618 
	C404.195007,481.807556 409.027283,489.586212 413.720551,497.441620 
	C414.718964,499.112701 415.793030,500.738647 417.771667,502.199005 
	C417.771667,493.306793 417.798492,484.414429 417.755707,475.522430 
	C417.742432,472.766113 418.007416,470.527924 421.680939,470.662842 
	C424.148499,470.753448 425.334991,471.624481 425.327759,474.197906 
	C425.288116,488.343903 425.309296,502.490112 425.316223,516.636230 
	C425.317108,518.494873 424.814331,519.916748 422.642578,520.112061 
	C419.724518,520.374390 417.164642,520.307678 415.379730,517.204712 
	C410.568420,508.840698 405.508728,500.619476 400.540680,492.345734 
	C399.179535,490.078888 397.793945,487.826721 396.197266,485.202545 
	C394.728302,486.893677 395.462097,488.568878 395.258698,490.471130 
z"/>
<path fill="#000000" opacity="1.000000" stroke="none" 
	d="
M374.261963,494.152679 
	C374.172852,497.200745 372.344269,497.364166 370.408539,497.369202 
	C366.911713,497.378235 363.407532,497.524933 359.920166,497.346039 
	C356.593353,497.175415 355.034058,498.243317 355.120453,501.845154 
	C355.429962,514.747437 353.859436,512.449158 365.540466,512.669861 
	C369.036133,512.735901 372.535614,512.758057 376.030212,512.672913 
	C378.726807,512.607300 380.056274,513.712646 380.029114,516.479675 
	C380.005035,518.934204 378.926361,520.190002 376.417297,520.185974 
	C367.425873,520.171448 358.434479,520.172058 349.443054,520.182739 
	C346.842438,520.185852 345.924316,518.650574 345.922363,516.342773 
	C345.910675,502.355835 345.932343,488.368866 345.918121,474.381927 
	C345.915283,471.576172 347.389008,470.630981 350.016113,470.649475 
	C358.507996,470.709198 367.000549,470.696503 375.492737,470.666809 
	C377.868652,470.658508 379.217010,471.432648 379.256287,474.103333 
	C379.297302,476.891388 378.058838,478.075775 375.390533,478.068909 
	C370.228760,478.055664 365.056458,478.264679 359.907959,478.001434 
	C354.543060,477.727203 355.226196,481.276276 355.142426,484.631439 
	C355.057220,488.045410 355.001648,491.106354 359.919464,490.626953 
	C363.222717,490.304962 366.571686,490.358673 369.898163,490.402008 
	C372.061493,490.430145 374.465149,490.420654 374.261963,494.152679 
z"/>
<path fill="#000000" opacity="1.000000" stroke="none" 
	d="
M515.632202,477.794373 
	C520.961426,470.443878 528.202271,468.812195 536.246338,469.908386 
	C543.346741,470.876038 547.965027,475.165771 550.209900,481.920685 
	C550.781006,483.639282 552.361389,486.017609 549.223999,486.818085 
	C546.679993,487.467163 543.656677,489.076080 541.835999,485.303009 
	C541.047241,483.668365 540.230408,481.970551 539.067810,480.607147 
	C535.372925,476.274261 530.031128,476.043793 525.845459,479.855499 
	C518.668823,486.391022 518.561340,503.969849 525.657104,510.656006 
	C531.018494,515.708008 537.568481,514.002197 541.219299,506.340790 
	C542.662476,503.312225 543.902649,501.167358 547.887634,502.492065 
	C550.542542,503.374573 551.462952,504.500519 550.511475,507.184753 
	C547.943787,514.428772 543.638611,519.679199 535.521423,520.812073 
	C527.644958,521.911438 520.687744,520.165833 516.290344,513.172974 
	C509.125122,501.778656 509.089264,489.954529 515.632202,477.794373 
z"/>
<path fill="#000000" opacity="1.000000" stroke="none" 
	d="
M666.161804,497.388977 
	C658.081360,497.402557 658.078186,497.414490 658.680054,504.821320 
	C658.787659,506.144806 658.976440,507.501770 658.803589,508.800140 
	C658.367981,512.072937 660.014709,512.779541 662.871643,512.714722 
	C668.357422,512.590393 673.848511,512.728882 679.336670,512.676514 
	C681.896240,512.652039 683.397522,513.397461 683.385620,516.340759 
	C683.374207,519.169495 682.065613,520.203857 679.434998,520.195496 
	C670.786560,520.168030 662.138000,520.168518 653.489502,520.183350 
	C650.735962,520.188110 649.676270,518.784851 649.683411,516.130798 
	C649.720886,502.159851 649.719788,488.188690 649.682007,474.217743 
	C649.675110,471.655945 650.874268,470.660706 653.337280,470.671509 
	C661.985779,470.709442 670.634644,470.705170 679.283203,470.668640 
	C681.721985,470.658356 683.024231,471.644806 683.015259,474.193024 
	C683.006653,476.621643 681.885986,477.969116 679.430054,477.989349 
	C673.942261,478.034546 668.446045,478.212067 662.968445,477.979279 
	C657.961609,477.766449 658.339722,480.996674 658.410217,484.250275 
	C658.477661,487.358978 657.669067,490.914032 662.829834,490.635132 
	C666.643799,490.428986 670.478516,490.625488 674.303650,490.599182 
	C676.687988,490.582825 678.069092,491.457306 678.025757,494.091675 
	C677.981262,496.792999 676.429077,497.432892 674.115601,497.383850 
	C671.622009,497.330963 669.126099,497.383331 666.161804,497.388977 
z"/>
<path fill="#000000" opacity="1.000000" stroke="none" 
	d="
M558.701355,511.753540 
	C556.928467,501.127167 557.241943,490.807587 557.269897,480.505127 
	C557.277954,477.528076 557.592468,474.551819 557.763184,471.631836 
	C564.979370,469.350220 566.251953,470.199921 566.273926,477.234039 
	C566.301025,485.897949 566.229614,494.562805 566.337402,503.225555 
	C566.417358,509.646545 569.207947,512.893188 574.877747,513.552307 
	C579.783875,514.122742 584.251465,510.603241 585.063110,504.761078 
	C586.350342,495.495148 585.337463,486.134338 585.616455,476.819458 
	C585.670349,475.020996 585.174072,473.164398 586.031006,471.451874 
	C592.665466,469.802063 593.307190,470.265137 593.314575,476.909180 
	C593.324890,486.239441 593.486145,495.575653 593.211975,504.898407 
	C592.945007,513.976624 588.721619,518.750916 580.062073,520.611145 
	C570.097534,522.751709 562.820923,519.850037 558.701355,511.753540 
z"/>
<path fill="#000000" opacity="1.000000" stroke="none" 
	d="
M397.298218,559.829224 
	C398.547821,563.575012 401.132294,566.490051 400.961304,570.361633 
	C398.195404,571.989502 396.423950,571.143188 395.324066,568.493530 
	C394.304199,566.036560 393.184692,563.602722 392.409851,561.066772 
	C391.398163,557.755737 389.344971,556.628113 386.016968,557.104065 
	C382.424774,557.617737 383.400635,560.352905 383.239288,562.502930 
	C383.090149,564.490173 383.187653,566.495178 383.062988,568.485229 
	C382.952362,570.251526 381.976105,571.202637 380.126923,571.101135 
	C378.434326,571.008240 377.794800,569.896362 377.789551,568.431030 
	C377.755005,558.782837 377.752686,549.134338 377.788239,539.486145 
	C377.795105,537.621277 379.059814,536.842163 380.753845,536.841736 
	C384.577026,536.840820 388.449310,536.562439 392.213379,537.061890 
	C400.726562,538.191650 404.072235,546.702881 398.692688,553.417053 
	C397.141968,555.352539 395.587677,556.921631 397.298218,559.829224 
M385.058960,551.648315 
	C387.379700,551.639038 389.759216,551.949646 392.005890,551.537109 
	C394.640045,551.053223 395.827118,549.008789 395.552673,546.319458 
	C395.241089,543.266357 393.223480,541.828125 390.415649,542.055115 
	C388.039368,542.247192 384.597748,540.006470 383.499023,543.679565 
	C382.794739,546.034058 382.403656,548.954651 385.058960,551.648315 
z"/>
<path fill="#000000" opacity="1.000000" stroke="none" 
	d="
M664.427124,553.693481 
	C660.329590,550.493103 658.620239,546.811646 660.539307,542.083191 
	C662.460388,537.349915 666.626221,536.048340 671.116333,536.096802 
	C675.310242,536.141968 678.960022,537.813782 680.584961,542.149048 
	C681.205505,543.804565 682.183350,545.877136 679.794373,546.869629 
	C677.781250,547.705933 676.343750,546.735718 675.677368,544.542603 
	C674.709106,541.355408 672.201538,540.834717 669.304504,541.187195 
	C667.465515,541.410889 666.266663,542.461060 665.656677,544.168884 
	C664.986633,546.044678 665.942505,547.397583 667.256958,548.540100 
	C669.599121,550.575928 672.694336,550.959656 675.419922,552.157837 
	C680.828979,554.535645 683.201904,558.775940 682.071350,564.069031 
	C680.993469,569.115601 676.452271,572.285767 670.441284,572.187805 
	C664.493835,572.090881 660.433594,569.110718 659.308350,564.074585 
	C658.969421,562.557739 658.492310,560.969666 660.532410,560.392090 
	C662.293457,559.893555 663.844238,560.166687 664.358276,562.368225 
	C664.888245,564.637878 666.180847,566.285889 668.531982,566.868774 
	C671.690857,567.651978 674.809692,567.405029 676.249023,564.159119 
	C677.776245,560.714661 675.692200,558.494507 672.566467,557.164612 
	C669.965820,556.058228 667.347351,554.993408 664.427124,553.693481 
z"/>
<path fill="#000000" opacity="1.000000" stroke="none" 
	d="
M478.215729,567.670227 
	C478.040314,570.074219 477.209137,571.329773 475.044098,571.034607 
	C473.075073,570.766113 472.894287,569.214294 472.848297,567.668335 
	C472.788849,565.670776 472.578094,563.644409 472.819733,561.677917 
	C473.384308,557.084290 471.199646,556.089661 467.025482,556.078857 
	C462.861053,556.068054 460.673340,557.015564 461.189392,561.634216 
	C461.446075,563.931519 461.214539,566.291992 461.101135,568.618958 
	C461.025787,570.164978 460.123108,571.061096 458.535797,571.089905 
	C456.953339,571.118591 455.906738,570.273560 455.897095,568.722412 
	C455.836121,558.898560 455.825836,549.073853 455.889221,539.250122 
	C455.899323,537.684875 457.052216,536.914062 458.612518,536.988831 
	C460.207306,537.065186 461.042450,538.044434 461.113098,539.560974 
	C461.229279,542.054810 461.414612,544.567932 461.232208,547.048096 
	C460.899292,551.575195 463.701508,551.662354 466.997986,551.653137 
	C470.263855,551.644043 473.152710,551.637573 472.802612,547.085754 
	C472.637177,544.934387 472.786407,542.757080 472.827179,540.592224 
	C472.860260,538.835938 473.109467,537.115662 475.360687,536.999878 
	C477.996338,536.864319 478.210419,538.798950 478.216217,540.722290 
	C478.242767,549.550720 478.234039,558.379211 478.215729,567.670227 
z"/>
<path fill="#000000" opacity="1.000000" stroke="none" 
	d="
M356.339355,564.265991 
	C354.425507,564.210083 352.923828,564.272949 351.435669,564.158875 
	C348.305695,563.918945 345.899139,564.551941 345.087921,568.148804 
	C344.669250,570.005127 343.536713,571.763611 341.211548,570.896179 
	C338.924286,570.042847 339.994049,568.138062 340.455231,566.640930 
	C343.143494,557.913818 345.916107,549.212708 348.600861,540.484558 
	C349.241974,538.400330 350.170776,536.846191 352.639038,536.819702 
	C354.483368,536.799988 355.863159,537.343201 356.470551,539.268555 
	C359.704346,549.518921 362.962799,559.761475 366.211914,570.004211 
	C362.872894,572.116638 361.113220,571.106323 360.043030,568.209167 
	C359.413208,566.504028 359.063690,564.588623 356.339355,564.265991 
M355.818665,554.445251 
	C354.887939,551.217590 353.957214,547.989929 353.026520,544.762268 
	C351.245819,549.345032 348.969208,553.467346 348.856293,558.688660 
	C351.741150,557.942566 356.258209,562.016602 355.818665,554.445251 
z"/>
<path fill="#000000" opacity="1.000000" stroke="none" 
	d="
M569.530151,536.873657 
	C571.517700,537.281738 572.264587,538.205872 571.971436,539.811523 
	C571.711121,541.237000 570.552490,541.654236 569.379883,541.706970 
	C566.220947,541.849060 563.044189,542.034851 559.895935,541.846436 
	C556.785950,541.660217 556.176208,543.275818 556.333435,545.813416 
	C556.489685,548.335205 555.477905,551.538452 559.780396,551.581604 
	C562.445496,551.608337 565.111816,551.608582 567.775024,551.697693 
	C569.043823,551.740173 570.036682,552.252075 570.045532,553.765320 
	C570.054016,555.214661 569.164978,555.934875 567.891418,556.036133 
	C565.902771,556.194092 563.873413,556.383728 561.906555,556.160950 
	C557.493530,555.661011 556.174316,557.462280 556.162964,561.828064 
	C556.151550,566.190857 558.127625,566.870300 561.682617,566.611572 
	C564.335815,566.418579 567.012817,566.570679 569.678650,566.528809 
	C571.359558,566.502380 572.770630,566.869263 572.731079,568.894653 
	C572.698853,570.542297 571.517761,571.200378 570.030457,571.210266 
	C564.699036,571.245605 559.367065,571.256287 554.035828,571.210632 
	C551.646240,571.190186 550.941040,569.557922 550.938965,567.512024 
	C550.929810,558.513794 550.962158,549.515625 550.967468,540.517395 
	C550.969116,537.739685 552.449707,536.721619 555.086487,536.766479 
	C559.751160,536.845947 564.417664,536.810303 569.530151,536.873657 
z"/>
<path fill="#000000" opacity="1.000000" stroke="none" 
	d="
M438.181641,558.833496 
	C441.701263,559.114319 441.192352,561.205933 440.716431,563.220886 
	C439.510925,568.325012 435.950104,571.421082 430.569977,572.099548 
	C425.146973,572.783386 419.828552,570.281555 417.775574,565.409607 
	C414.609375,557.895996 414.551727,550.146301 417.807190,542.632690 
	C419.862976,537.887939 425.604340,535.250244 430.684174,536.158447 
	C436.000397,537.108887 439.661255,540.659607 440.230804,545.624573 
	C440.406036,547.151733 441.108246,549.181030 438.714569,549.725647 
	C436.635956,550.198669 435.657654,548.851196 435.272522,547.026672 
	C434.378937,542.793518 431.928680,540.525146 427.501617,541.206055 
	C423.072021,541.887329 421.673157,545.283752 421.358154,549.155334 
	C421.102875,552.293518 421.165924,555.472595 421.303406,558.624146 
	C421.485901,562.807251 423.076416,566.153870 427.681671,566.880737 
	C432.228577,567.598511 435.008331,565.559265 435.921112,561.003967 
	C436.125122,559.985779 436.689056,559.173828 438.181641,558.833496 
z"/>
<path fill="#000000" opacity="1.000000" stroke="none" 
	d="
M586.059998,555.762146 
	C586.117249,551.502747 586.459229,547.682007 587.734558,544.058838 
	C589.523315,538.977173 594.892456,535.596191 600.239624,535.942261 
	C605.593872,536.288757 609.525452,539.582214 610.813843,544.949890 
	C611.219238,546.639038 612.158020,548.777161 609.589600,549.549377 
	C607.354919,550.221191 606.226685,548.818481 605.797668,546.723633 
	C605.082947,543.234131 603.250671,540.992249 599.378418,541.081116 
	C595.421021,541.171936 593.380249,543.595703 592.358948,547.055420 
	C590.961609,551.788818 590.909851,556.573730 592.433960,561.295227 
	C593.553894,564.764587 595.743225,567.003296 599.663574,567.019104 
	C603.364563,567.033997 605.655823,565.160828 606.444641,561.654480 
	C606.932800,559.484253 607.902344,558.186890 610.157654,558.931641 
	C612.466431,559.694092 611.475769,561.752136 611.213623,563.212769 
	C610.266663,568.488403 606.710632,571.083923 601.658691,571.988403 
	C596.817566,572.855164 591.795288,570.685730 589.104126,566.630310 
	C586.995728,563.453125 586.657043,559.798584 586.059998,555.762146 
z"/>
<path fill="#000000" opacity="1.000000" stroke="none" 
	d="
M632.715454,560.959106 
	C632.712280,556.137634 632.566101,551.802246 632.752869,547.481262 
	C632.906433,543.928894 632.165405,541.638733 627.926880,541.859863 
	C626.211975,541.949341 623.870544,541.939819 623.962280,539.254639 
	C624.052246,536.621338 626.304077,536.836792 628.085693,536.812927 
	C632.913452,536.748108 637.742920,536.758606 642.570984,536.809204 
	C644.354126,536.827881 646.604004,536.523071 646.867493,539.072815 
	C647.147278,541.780823 644.819641,541.881348 643.074646,541.813293 
	C638.958130,541.652588 638.056519,543.773804 638.160095,547.404480 
	C638.345093,553.892700 638.226013,560.390625 638.174744,566.883972 
	C638.158813,568.902466 638.173950,571.184814 635.213135,571.044312 
	C632.540283,570.917419 632.821899,568.735168 632.749512,566.945496 
	C632.675537,565.116699 632.722412,563.283020 632.715454,560.959106 
z"/>
<path fill="#000000" opacity="1.000000" stroke="none" 
	d="
M528.388794,560.957031 
	C528.379395,563.446594 528.413940,565.446716 528.343994,567.443115 
	C528.284668,569.135254 528.213135,570.987244 525.859253,571.017273 
	C523.535950,571.046936 523.244690,569.196594 523.229065,567.522339 
	C523.160522,560.195923 523.205933,552.868469 523.209778,545.541382 
	C523.210327,544.557129 523.209900,543.572937 523.209900,542.658936 
	C521.408875,540.817383 519.286194,542.172607 517.405762,541.791443 
	C516.038574,541.514343 514.755188,541.307068 514.660522,539.518250 
	C514.554565,537.516663 515.735291,536.857361 517.450867,536.848877 
	C522.946838,536.821533 528.443115,536.814697 533.938904,536.856262 
	C535.505432,536.868103 537.022278,537.192383 537.153992,539.199768 
	C537.290161,541.274963 535.719849,541.950684 534.225403,541.725342 
	C528.532410,540.867004 528.045532,544.074341 528.337280,548.477112 
	C528.601013,552.457031 528.389404,556.468445 528.388794,560.957031 
z"/>
<path fill="#000000" opacity="1.000000" stroke="none" 
	d="
M500.959259,544.198181 
	C500.965942,551.829041 501.042999,558.988220 500.928497,566.144348 
	C500.895996,568.173218 501.201660,571.018799 498.001160,570.933655 
	C494.963440,570.852844 495.715515,568.120117 495.693481,566.309265 
	C495.596283,558.319946 495.574188,550.327698 495.699890,542.339233 
	C495.730011,540.422302 494.604156,537.370789 497.851685,537.135620 
	C501.388428,536.879517 500.666016,540.048096 500.933746,542.228210 
	C500.994232,542.720825 500.951965,543.225952 500.959259,544.198181 
z"/>
</svg>